<?xml version="1.0" encoding="UTF-8"?><svg id="Calque_4" xmlns="http://www.w3.org/2000/svg" viewBox="0 0 373.95 403.4"><defs><style>.cls-1{fill:#f9b000;}.cls-2{fill:#4d3677;}</style></defs><path class="cls-1" d="M373.95,21.91v56.97c0,10.02-8.14,18.15-18.15,18.15h-61.56v176.33c3.96,169.24-277.75,175.29-286.93,5.01l-.21-75.96c32.55,1.88,68.24-15.65,93.28-44.45v91.61c0,73.87,100.58,73.87,100.58,0l-.21-152.54h-55.09c-10.02,0-18.15-8.14-18.15-18.15V21.91c0-10.02,8.14-18.15,18.15-18.15h210.14c10.02,0,18.15,8.14,18.15,18.15Z"/><path class="cls-2" d="M7.1,273.78V127.5c13.56,7.93,29.42,12.52,46.53,12.52s32.97-4.59,46.74-12.52v122.28c-.09,3.23,.07,7.83,1.22,13.16,.91,4.18,5.3,24.42,23.91,35.36,19.63,11.54,44.03,6.22,57.05-4.71,5.96-5,9.91-11.48,9.91-11.48,2.54-4.1,3.93-7.73,4.59-9.47,.57-1.52,1.49-4.16,2.27-7.54,.96-4.21,1.24-7.55,1.37-9.39,.66-9.32,.18-17.12,.05-25.97-.05-3.48-.07-8.66,.15-15.03,3.9-22.52,23.3-39.17,45.75-39.58,23.25-.43,43.75,16.65,47.59,40.01-.02,4.98-.05,12.65-.03,22.08,.02,9.82,.06,12.22,.06,19.38,0,17.39,.01,26.08-.36,30.66-.42,5.12-1.39,16.19-5.56,29.14-2,6.2-7.71,22.08-21.13,38.42-13.54,16.48-27.94,24.94-35.57,29.33-36.33,20.89-72.3,19.2-85.14,19.2-1.88,0-3.34-.21-3.76-.21-33.18-1.46-56.55-12.52-62.39-15.44-10.85-5.43-32.97-16.69-50.5-41.53-20.66-29.21-22.75-59.68-22.75-72.41Z"/><circle class="cls-2" cx="52.17" cy="52.17" r="52.17"/><circle class="cls-1" cx="151.5" cy="265.45" r="26.71" transform="translate(-134.79 372.47) rotate(-80.78)"/></svg>